<mxfile host="65bd71144e">
    <diagram id="GtlSE6PxsFourFfLZDGg" name="Page-1">
        <mxGraphModel dx="1691" dy="1198" grid="1" gridSize="10" guides="1" tooltips="1" connect="1" arrows="1" fold="1" page="1" pageScale="1" pageWidth="4681" pageHeight="3300" math="0" shadow="0">
            <root>
                <mxCell id="0"/>
                <mxCell id="1" parent="0"/>
                <mxCell id="12" value="premios" style="rounded=0;whiteSpace=wrap;html=1;aspect=fixed;" parent="1" vertex="1">
                    <mxGeometry x="175" y="118.28999999999996" width="90" height="45" as="geometry"/>
                </mxCell>
                <mxCell id="13" style="edgeStyle=orthogonalEdgeStyle;html=1;exitX=0.5;exitY=1;exitDx=0;exitDy=0;entryX=0.25;entryY=0;entryDx=0;entryDy=0;curved=1;endArrow=none;endFill=0;" parent="1" source="14" target="12" edge="1">
                    <mxGeometry relative="1" as="geometry"/>
                </mxCell>
                <mxCell id="14" value="&lt;u&gt;id&lt;/u&gt;" style="ellipse;whiteSpace=wrap;html=1;aspect=fixed;" parent="1" vertex="1">
                    <mxGeometry x="80" y="54.58" width="35.99" height="15.42" as="geometry"/>
                </mxCell>
                <mxCell id="15" value="nombre" style="ellipse;whiteSpace=wrap;html=1;aspect=fixed;" parent="1" vertex="1">
                    <mxGeometry x="265" y="34.57" width="60" height="25.72" as="geometry"/>
                </mxCell>
                <mxCell id="16" style="edgeStyle=orthogonalEdgeStyle;html=1;exitX=0.5;exitY=1;exitDx=0;exitDy=0;entryX=0.75;entryY=0;entryDx=0;entryDy=0;curved=1;endArrow=none;endFill=0;" parent="1" source="15" target="12" edge="1">
                    <mxGeometry relative="1" as="geometry">
                        <mxPoint x="203" y="70.28999999999996" as="sourcePoint"/>
                        <mxPoint x="228" y="110.28999999999996" as="targetPoint"/>
                    </mxGeometry>
                </mxCell>
                <mxCell id="17" value="temporada" style="ellipse;whiteSpace=wrap;html=1;aspect=fixed;" parent="1" vertex="1">
                    <mxGeometry x="340" y="139" width="80" height="34.29" as="geometry"/>
                </mxCell>
                <mxCell id="18" style="edgeStyle=orthogonalEdgeStyle;html=1;exitX=0;exitY=0.5;exitDx=0;exitDy=0;entryX=1;entryY=0.25;entryDx=0;entryDy=0;curved=1;endArrow=none;endFill=0;" parent="1" source="17" target="12" edge="1">
                    <mxGeometry relative="1" as="geometry">
                        <mxPoint x="335" y="108.01999999999998" as="sourcePoint"/>
                        <mxPoint x="320" y="152.59000000000003" as="targetPoint"/>
                    </mxGeometry>
                </mxCell>
                <mxCell id="19" style="edgeStyle=orthogonalEdgeStyle;html=1;entryX=0.75;entryY=1;entryDx=0;entryDy=0;curved=1;endArrow=none;endFill=0;exitX=0.5;exitY=-0.085;exitDx=0;exitDy=0;exitPerimeter=0;" parent="1" source="20" target="12" edge="1">
                    <mxGeometry relative="1" as="geometry">
                        <mxPoint x="360" y="130.28999999999996" as="sourcePoint"/>
                        <mxPoint x="270" y="174.19000000000005" as="targetPoint"/>
                    </mxGeometry>
                </mxCell>
                <mxCell id="20" value="jugador" style="ellipse;whiteSpace=wrap;html=1;aspect=fixed;" parent="1" vertex="1">
                    <mxGeometry x="265" y="228.56999999999994" width="60" height="25.72" as="geometry"/>
                </mxCell>
                <mxCell id="21" value="equipo_jugador" style="ellipse;whiteSpace=wrap;html=1;aspect=fixed;" parent="1" vertex="1">
                    <mxGeometry x="35" y="187.57999999999998" width="110" height="47.15" as="geometry"/>
                </mxCell>
                <mxCell id="22" style="edgeStyle=orthogonalEdgeStyle;html=1;entryX=0.008;entryY=0.682;entryDx=0;entryDy=0;curved=1;endArrow=none;endFill=0;entryPerimeter=0;exitX=0.5;exitY=0;exitDx=0;exitDy=0;" parent="1" source="21" target="12" edge="1">
                    <mxGeometry relative="1" as="geometry">
                        <mxPoint x="297.72000000000094" y="195.745" as="sourcePoint"/>
                        <mxPoint x="230.0000000000001" y="178.58000000000004" as="targetPoint"/>
                    </mxGeometry>
                </mxCell>
                <mxCell id="27" value="jugadores" style="rounded=0;whiteSpace=wrap;html=1;aspect=fixed;" parent="1" vertex="1">
                    <mxGeometry x="583" y="118.28999999999996" width="90" height="45" as="geometry"/>
                </mxCell>
                <mxCell id="28" style="edgeStyle=orthogonalEdgeStyle;html=1;exitX=0.5;exitY=1;exitDx=0;exitDy=0;entryX=0.25;entryY=0;entryDx=0;entryDy=0;curved=1;endArrow=none;endFill=0;" parent="1" source="29" target="27" edge="1">
                    <mxGeometry relative="1" as="geometry"/>
                </mxCell>
                <mxCell id="29" value="&lt;u&gt;id&lt;/u&gt;" style="ellipse;whiteSpace=wrap;html=1;aspect=fixed;" parent="1" vertex="1">
                    <mxGeometry x="480" y="51.28" width="42" height="18.01" as="geometry"/>
                </mxCell>
                <mxCell id="30" value="nombre" style="ellipse;whiteSpace=wrap;html=1;aspect=fixed;" parent="1" vertex="1">
                    <mxGeometry x="673" y="34.57" width="60" height="25.72" as="geometry"/>
                </mxCell>
                <mxCell id="31" style="edgeStyle=orthogonalEdgeStyle;html=1;exitX=0.5;exitY=1;exitDx=0;exitDy=0;entryX=0.75;entryY=0;entryDx=0;entryDy=0;curved=1;endArrow=none;endFill=0;" parent="1" source="30" target="27" edge="1">
                    <mxGeometry relative="1" as="geometry">
                        <mxPoint x="611" y="70.28999999999996" as="sourcePoint"/>
                        <mxPoint x="636" y="110.28999999999996" as="targetPoint"/>
                    </mxGeometry>
                </mxCell>
                <mxCell id="32" value="altura" style="ellipse;whiteSpace=wrap;html=1;aspect=fixed;" parent="1" vertex="1">
                    <mxGeometry x="765" y="159.29" width="50" height="21.43" as="geometry"/>
                </mxCell>
                <mxCell id="33" style="edgeStyle=orthogonalEdgeStyle;html=1;exitX=0;exitY=0.5;exitDx=0;exitDy=0;entryX=1;entryY=0.75;entryDx=0;entryDy=0;curved=1;endArrow=none;endFill=0;" parent="1" source="32" target="27" edge="1">
                    <mxGeometry relative="1" as="geometry">
                        <mxPoint x="743" y="108.01999999999998" as="sourcePoint"/>
                        <mxPoint x="728" y="152.59000000000003" as="targetPoint"/>
                    </mxGeometry>
                </mxCell>
                <mxCell id="34" style="edgeStyle=orthogonalEdgeStyle;html=1;entryX=0.75;entryY=1;entryDx=0;entryDy=0;curved=1;endArrow=none;endFill=0;exitX=0.5;exitY=-0.085;exitDx=0;exitDy=0;exitPerimeter=0;" parent="1" source="35" target="27" edge="1">
                    <mxGeometry relative="1" as="geometry">
                        <mxPoint x="768" y="130.28999999999996" as="sourcePoint"/>
                        <mxPoint x="678" y="174.19000000000005" as="targetPoint"/>
                    </mxGeometry>
                </mxCell>
                <mxCell id="35" value="edad" style="ellipse;whiteSpace=wrap;html=1;aspect=fixed;" parent="1" vertex="1">
                    <mxGeometry x="678" y="230.56999999999994" width="50" height="21.43" as="geometry"/>
                </mxCell>
                <mxCell id="36" value="equipo_jugador" style="ellipse;whiteSpace=wrap;html=1;aspect=fixed;" parent="1" vertex="1">
                    <mxGeometry x="443" y="187.57999999999998" width="110" height="47.15" as="geometry"/>
                </mxCell>
                <mxCell id="37" style="edgeStyle=orthogonalEdgeStyle;html=1;entryX=0.008;entryY=0.682;entryDx=0;entryDy=0;curved=1;endArrow=none;endFill=0;entryPerimeter=0;exitX=0.5;exitY=0;exitDx=0;exitDy=0;" parent="1" source="36" target="27" edge="1">
                    <mxGeometry relative="1" as="geometry">
                        <mxPoint x="705.7200000000009" y="195.745" as="sourcePoint"/>
                        <mxPoint x="638.0000000000001" y="178.58000000000004" as="targetPoint"/>
                    </mxGeometry>
                </mxCell>
                <mxCell id="38" value="nacionalidad" style="ellipse;whiteSpace=wrap;html=1;aspect=fixed;" parent="1" vertex="1">
                    <mxGeometry x="530" y="244.42" width="90" height="38.58" as="geometry"/>
                </mxCell>
                <mxCell id="39" style="edgeStyle=orthogonalEdgeStyle;html=1;entryX=0.25;entryY=1;entryDx=0;entryDy=0;curved=1;endArrow=none;endFill=0;exitX=0.5;exitY=0;exitDx=0;exitDy=0;" parent="1" source="38" target="27" edge="1">
                    <mxGeometry relative="1" as="geometry">
                        <mxPoint x="523.99" y="218.59999999999994" as="sourcePoint"/>
                        <mxPoint x="609.71" y="180.00000000000003" as="targetPoint"/>
                    </mxGeometry>
                </mxCell>
                <mxCell id="40" value="draft" style="ellipse;whiteSpace=wrap;html=1;aspect=fixed;" parent="1" vertex="1">
                    <mxGeometry x="770" y="64.42999999999998" width="50" height="21.43" as="geometry"/>
                </mxCell>
                <mxCell id="41" style="edgeStyle=orthogonalEdgeStyle;html=1;exitX=0;exitY=1;exitDx=0;exitDy=0;entryX=1;entryY=0.25;entryDx=0;entryDy=0;curved=1;endArrow=none;endFill=0;" parent="1" source="40" target="27" edge="1">
                    <mxGeometry relative="1" as="geometry">
                        <mxPoint x="764.9999999999975" y="138.9950000000001" as="sourcePoint"/>
                        <mxPoint x="690" y="112.38999999999996" as="targetPoint"/>
                    </mxGeometry>
                </mxCell>
                <mxCell id="42" value="entrenadores" style="rounded=0;whiteSpace=wrap;html=1;aspect=fixed;" parent="1" vertex="1">
                    <mxGeometry x="1050" y="118.28999999999996" width="90" height="45" as="geometry"/>
                </mxCell>
                <mxCell id="43" style="edgeStyle=orthogonalEdgeStyle;html=1;exitX=0.5;exitY=1;exitDx=0;exitDy=0;entryX=0.25;entryY=0;entryDx=0;entryDy=0;curved=1;endArrow=none;endFill=0;" parent="1" source="44" target="42" edge="1">
                    <mxGeometry relative="1" as="geometry"/>
                </mxCell>
                <mxCell id="44" value="&lt;u&gt;id&lt;/u&gt;" style="ellipse;whiteSpace=wrap;html=1;aspect=fixed;" parent="1" vertex="1">
                    <mxGeometry x="950" y="52.43" width="40.99" height="17.57" as="geometry"/>
                </mxCell>
                <mxCell id="45" value="nombre" style="ellipse;whiteSpace=wrap;html=1;aspect=fixed;" parent="1" vertex="1">
                    <mxGeometry x="1140" y="34.57" width="60" height="25.72" as="geometry"/>
                </mxCell>
                <mxCell id="46" style="edgeStyle=orthogonalEdgeStyle;html=1;exitX=0.5;exitY=1;exitDx=0;exitDy=0;entryX=0.75;entryY=0;entryDx=0;entryDy=0;curved=1;endArrow=none;endFill=0;" parent="1" source="45" target="42" edge="1">
                    <mxGeometry relative="1" as="geometry">
                        <mxPoint x="1078" y="70.28999999999996" as="sourcePoint"/>
                        <mxPoint x="1103" y="110.28999999999996" as="targetPoint"/>
                    </mxGeometry>
                </mxCell>
                <mxCell id="47" value="equipo" style="ellipse;whiteSpace=wrap;html=1;aspect=fixed;" parent="1" vertex="1">
                    <mxGeometry x="1217" y="153.29" width="80" height="34.29" as="geometry"/>
                </mxCell>
                <mxCell id="48" style="edgeStyle=orthogonalEdgeStyle;html=1;exitX=0;exitY=0.5;exitDx=0;exitDy=0;entryX=1;entryY=0.75;entryDx=0;entryDy=0;curved=1;endArrow=none;endFill=0;" parent="1" source="47" target="42" edge="1">
                    <mxGeometry relative="1" as="geometry">
                        <mxPoint x="1210" y="108.01999999999998" as="sourcePoint"/>
                        <mxPoint x="1195" y="152.59000000000003" as="targetPoint"/>
                    </mxGeometry>
                </mxCell>
                <mxCell id="49" style="edgeStyle=orthogonalEdgeStyle;html=1;entryX=0.75;entryY=1;entryDx=0;entryDy=0;curved=1;endArrow=none;endFill=0;exitX=0.5;exitY=-0.085;exitDx=0;exitDy=0;exitPerimeter=0;" parent="1" source="50" target="42" edge="1">
                    <mxGeometry relative="1" as="geometry">
                        <mxPoint x="1235" y="130.28999999999996" as="sourcePoint"/>
                        <mxPoint x="1145" y="174.19000000000005" as="targetPoint"/>
                    </mxGeometry>
                </mxCell>
                <mxCell id="50" value="edad" style="ellipse;whiteSpace=wrap;html=1;aspect=fixed;" parent="1" vertex="1">
                    <mxGeometry x="1140" y="228.56999999999994" width="60" height="25.72" as="geometry"/>
                </mxCell>
                <mxCell id="51" value="equipo_jugador" style="ellipse;whiteSpace=wrap;html=1;aspect=fixed;" parent="1" vertex="1">
                    <mxGeometry x="910" y="187.57999999999998" width="110" height="47.15" as="geometry"/>
                </mxCell>
                <mxCell id="52" style="edgeStyle=orthogonalEdgeStyle;html=1;entryX=0.008;entryY=0.682;entryDx=0;entryDy=0;curved=1;endArrow=none;endFill=0;entryPerimeter=0;exitX=0.5;exitY=0;exitDx=0;exitDy=0;" parent="1" source="51" target="42" edge="1">
                    <mxGeometry relative="1" as="geometry">
                        <mxPoint x="1172.720000000001" y="195.745" as="sourcePoint"/>
                        <mxPoint x="1105" y="178.58000000000004" as="targetPoint"/>
                    </mxGeometry>
                </mxCell>
                <mxCell id="53" value="nacionalidad" style="ellipse;whiteSpace=wrap;html=1;aspect=fixed;" parent="1" vertex="1">
                    <mxGeometry x="997" y="244.42" width="90" height="38.58" as="geometry"/>
                </mxCell>
                <mxCell id="54" style="edgeStyle=orthogonalEdgeStyle;html=1;entryX=0.25;entryY=1;entryDx=0;entryDy=0;curved=1;endArrow=none;endFill=0;exitX=0.5;exitY=0;exitDx=0;exitDy=0;" parent="1" source="53" target="42" edge="1">
                    <mxGeometry relative="1" as="geometry">
                        <mxPoint x="990.99" y="218.59999999999994" as="sourcePoint"/>
                        <mxPoint x="1076.71" y="180.00000000000003" as="targetPoint"/>
                    </mxGeometry>
                </mxCell>
                <mxCell id="55" value="edad" style="ellipse;whiteSpace=wrap;html=1;aspect=fixed;" parent="1" vertex="1">
                    <mxGeometry x="1217" y="55.42999999999998" width="90" height="38.58" as="geometry"/>
                </mxCell>
                <mxCell id="56" style="edgeStyle=orthogonalEdgeStyle;html=1;exitX=0;exitY=1;exitDx=0;exitDy=0;entryX=1;entryY=0.25;entryDx=0;entryDy=0;curved=1;endArrow=none;endFill=0;" parent="1" source="55" target="42" edge="1">
                    <mxGeometry relative="1" as="geometry">
                        <mxPoint x="1231.9999999999975" y="138.9950000000001" as="sourcePoint"/>
                        <mxPoint x="1157" y="112.38999999999996" as="targetPoint"/>
                    </mxGeometry>
                </mxCell>
                <mxCell id="58" value="partidos" style="rounded=0;whiteSpace=wrap;html=1;aspect=fixed;" vertex="1" parent="1">
                    <mxGeometry x="167.5" y="433.71999999999997" width="90" height="45" as="geometry"/>
                </mxCell>
                <mxCell id="59" style="edgeStyle=orthogonalEdgeStyle;html=1;exitX=0.5;exitY=1;exitDx=0;exitDy=0;entryX=0.25;entryY=0;entryDx=0;entryDy=0;curved=1;endArrow=none;endFill=0;" edge="1" parent="1" source="60" target="58">
                    <mxGeometry relative="1" as="geometry"/>
                </mxCell>
                <mxCell id="60" value="&lt;u&gt;id&lt;/u&gt;" style="ellipse;whiteSpace=wrap;html=1;aspect=fixed;" vertex="1" parent="1">
                    <mxGeometry x="70" y="368.93" width="38.49" height="16.5" as="geometry"/>
                </mxCell>
                <mxCell id="61" value="fecha" style="ellipse;whiteSpace=wrap;html=1;aspect=fixed;" vertex="1" parent="1">
                    <mxGeometry x="270" y="345.14" width="50" height="21.43" as="geometry"/>
                </mxCell>
                <mxCell id="62" style="edgeStyle=orthogonalEdgeStyle;html=1;exitX=0.5;exitY=1;exitDx=0;exitDy=0;entryX=0.75;entryY=0;entryDx=0;entryDy=0;curved=1;endArrow=none;endFill=0;" edge="1" parent="1" source="61" target="58">
                    <mxGeometry relative="1" as="geometry">
                        <mxPoint x="195.5" y="385.71999999999997" as="sourcePoint"/>
                        <mxPoint x="220.5" y="425.71999999999997" as="targetPoint"/>
                    </mxGeometry>
                </mxCell>
                <mxCell id="63" value="temporada" style="ellipse;whiteSpace=wrap;html=1;aspect=fixed;" vertex="1" parent="1">
                    <mxGeometry x="340" y="447.57" width="80" height="34.29" as="geometry"/>
                </mxCell>
                <mxCell id="64" style="edgeStyle=orthogonalEdgeStyle;html=1;exitX=0;exitY=0.5;exitDx=0;exitDy=0;entryX=1;entryY=0.25;entryDx=0;entryDy=0;curved=1;endArrow=none;endFill=0;" edge="1" parent="1" source="63" target="58">
                    <mxGeometry relative="1" as="geometry">
                        <mxPoint x="327.5" y="423.45" as="sourcePoint"/>
                        <mxPoint x="312.5" y="468.02000000000004" as="targetPoint"/>
                    </mxGeometry>
                </mxCell>
                <mxCell id="65" style="edgeStyle=orthogonalEdgeStyle;html=1;entryX=0.75;entryY=1;entryDx=0;entryDy=0;curved=1;endArrow=none;endFill=0;exitX=0.5;exitY=-0.085;exitDx=0;exitDy=0;exitPerimeter=0;" edge="1" parent="1" source="66" target="58">
                    <mxGeometry relative="1" as="geometry">
                        <mxPoint x="352.5" y="445.71999999999997" as="sourcePoint"/>
                        <mxPoint x="262.5" y="489.62000000000006" as="targetPoint"/>
                    </mxGeometry>
                </mxCell>
                <mxCell id="66" value="equipo_local" style="ellipse;whiteSpace=wrap;html=1;aspect=fixed;" vertex="1" parent="1">
                    <mxGeometry x="250" y="531.14" width="90" height="38.58" as="geometry"/>
                </mxCell>
                <mxCell id="67" value="equipo_visitante" style="ellipse;whiteSpace=wrap;html=1;aspect=fixed;" vertex="1" parent="1">
                    <mxGeometry x="35" y="447.56999999999994" width="110" height="47.15" as="geometry"/>
                </mxCell>
                <mxCell id="68" style="edgeStyle=orthogonalEdgeStyle;html=1;entryX=0.008;entryY=0.682;entryDx=0;entryDy=0;curved=1;endArrow=none;endFill=0;entryPerimeter=0;exitX=0.5;exitY=0;exitDx=0;exitDy=0;" edge="1" parent="1" source="67" target="58">
                    <mxGeometry relative="1" as="geometry">
                        <mxPoint x="290.22000000000094" y="511.175" as="sourcePoint"/>
                        <mxPoint x="222.5000000000001" y="494.01000000000005" as="targetPoint"/>
                    </mxGeometry>
                </mxCell>
                <mxCell id="72" value="arbitros" style="rounded=0;whiteSpace=wrap;html=1;aspect=fixed;" vertex="1" parent="1">
                    <mxGeometry x="578" y="433.71999999999997" width="90" height="45" as="geometry"/>
                </mxCell>
                <mxCell id="73" style="edgeStyle=orthogonalEdgeStyle;html=1;exitX=0.5;exitY=1;exitDx=0;exitDy=0;entryX=0.25;entryY=0;entryDx=0;entryDy=0;curved=1;endArrow=none;endFill=0;" edge="1" parent="1" source="74" target="72">
                    <mxGeometry relative="1" as="geometry"/>
                </mxCell>
                <mxCell id="74" value="&lt;u&gt;id&lt;/u&gt;" style="ellipse;whiteSpace=wrap;html=1;aspect=fixed;" vertex="1" parent="1">
                    <mxGeometry x="480" y="368.86" width="37" height="15.86" as="geometry"/>
                </mxCell>
                <mxCell id="75" value="nombre" style="ellipse;whiteSpace=wrap;html=1;aspect=fixed;" vertex="1" parent="1">
                    <mxGeometry x="668" y="350" width="60" height="25.72" as="geometry"/>
                </mxCell>
                <mxCell id="76" style="edgeStyle=orthogonalEdgeStyle;html=1;exitX=0.5;exitY=1;exitDx=0;exitDy=0;entryX=0.75;entryY=0;entryDx=0;entryDy=0;curved=1;endArrow=none;endFill=0;" edge="1" parent="1" source="75" target="72">
                    <mxGeometry relative="1" as="geometry">
                        <mxPoint x="606" y="385.71999999999997" as="sourcePoint"/>
                        <mxPoint x="631" y="425.71999999999997" as="targetPoint"/>
                    </mxGeometry>
                </mxCell>
                <mxCell id="79" style="edgeStyle=orthogonalEdgeStyle;html=1;entryX=1;entryY=0.25;entryDx=0;entryDy=0;curved=1;endArrow=none;endFill=0;exitX=0.5;exitY=1;exitDx=0;exitDy=0;" edge="1" parent="1" source="80" target="72">
                    <mxGeometry relative="1" as="geometry">
                        <mxPoint x="763" y="445.71999999999997" as="sourcePoint"/>
                        <mxPoint x="673" y="489.62000000000006" as="targetPoint"/>
                    </mxGeometry>
                </mxCell>
                <mxCell id="80" value="edad" style="ellipse;whiteSpace=wrap;html=1;aspect=fixed;" vertex="1" parent="1">
                    <mxGeometry x="760" y="390" width="50" height="21.43" as="geometry"/>
                </mxCell>
                <mxCell id="83" value="nacionalidad" style="ellipse;whiteSpace=wrap;html=1;aspect=fixed;" vertex="1" parent="1">
                    <mxGeometry x="653" y="511.58" width="90" height="38.58" as="geometry"/>
                </mxCell>
                <mxCell id="84" style="edgeStyle=orthogonalEdgeStyle;html=1;entryX=0.75;entryY=1;entryDx=0;entryDy=0;curved=1;endArrow=none;endFill=0;exitX=0.5;exitY=0;exitDx=0;exitDy=0;" edge="1" parent="1" source="83" target="72">
                    <mxGeometry relative="1" as="geometry">
                        <mxPoint x="518.99" y="534.03" as="sourcePoint"/>
                        <mxPoint x="604.71" y="495.43000000000006" as="targetPoint"/>
                    </mxGeometry>
                </mxCell>
                <mxCell id="90" value="equipos" style="rounded=0;whiteSpace=wrap;html=1;aspect=fixed;" vertex="1" parent="1">
                    <mxGeometry x="1036.5" y="435.71999999999997" width="90" height="45" as="geometry"/>
                </mxCell>
                <mxCell id="91" style="edgeStyle=orthogonalEdgeStyle;html=1;exitX=0.5;exitY=1;exitDx=0;exitDy=0;entryX=0.25;entryY=0;entryDx=0;entryDy=0;curved=1;endArrow=none;endFill=0;" edge="1" parent="1" source="92" target="90">
                    <mxGeometry relative="1" as="geometry"/>
                </mxCell>
                <mxCell id="92" value="&lt;u&gt;id&lt;/u&gt;" style="ellipse;whiteSpace=wrap;html=1;aspect=fixed;" vertex="1" parent="1">
                    <mxGeometry x="940" y="371.36" width="37.49" height="16.07" as="geometry"/>
                </mxCell>
                <mxCell id="93" value="nombre" style="ellipse;whiteSpace=wrap;html=1;aspect=fixed;" vertex="1" parent="1">
                    <mxGeometry x="1036.5" y="347.14" width="60" height="25.72" as="geometry"/>
                </mxCell>
                <mxCell id="94" style="edgeStyle=orthogonalEdgeStyle;html=1;exitX=0.5;exitY=1;exitDx=0;exitDy=0;entryX=0.75;entryY=0;entryDx=0;entryDy=0;curved=1;endArrow=none;endFill=0;" edge="1" parent="1" source="93" target="90">
                    <mxGeometry relative="1" as="geometry">
                        <mxPoint x="1064.5" y="387.71999999999997" as="sourcePoint"/>
                        <mxPoint x="1089.5" y="427.71999999999997" as="targetPoint"/>
                    </mxGeometry>
                </mxCell>
                <mxCell id="95" value="nombre_estadio" style="ellipse;whiteSpace=wrap;html=1;aspect=fixed;" vertex="1" parent="1">
                    <mxGeometry x="1191.5" y="385.43" width="110" height="47.15" as="geometry"/>
                </mxCell>
                <mxCell id="96" style="edgeStyle=orthogonalEdgeStyle;html=1;exitX=0;exitY=0.5;exitDx=0;exitDy=0;entryX=1;entryY=0.75;entryDx=0;entryDy=0;curved=1;endArrow=none;endFill=0;" edge="1" parent="1" source="95" target="90">
                    <mxGeometry relative="1" as="geometry">
                        <mxPoint x="1196.5" y="425.45" as="sourcePoint"/>
                        <mxPoint x="1181.5" y="470.02000000000004" as="targetPoint"/>
                    </mxGeometry>
                </mxCell>
                <mxCell id="97" style="edgeStyle=orthogonalEdgeStyle;html=1;entryX=0.75;entryY=1;entryDx=0;entryDy=0;curved=1;endArrow=none;endFill=0;exitX=0;exitY=0.5;exitDx=0;exitDy=0;" edge="1" parent="1" source="98" target="90">
                    <mxGeometry relative="1" as="geometry">
                        <mxPoint x="1221.5" y="447.71999999999997" as="sourcePoint"/>
                        <mxPoint x="1131.5" y="491.62000000000006" as="targetPoint"/>
                    </mxGeometry>
                </mxCell>
                <mxCell id="98" value="victorias" style="ellipse;whiteSpace=wrap;html=1;aspect=fixed;" vertex="1" parent="1">
                    <mxGeometry x="1222" y="488.01" width="70" height="30.01" as="geometry"/>
                </mxCell>
                <mxCell id="99" value="numero_campeonatos (anillos)" style="ellipse;whiteSpace=wrap;html=1;aspect=fixed;" vertex="1" parent="1">
                    <mxGeometry x="810" y="462.3" width="190" height="81.44" as="geometry"/>
                </mxCell>
                <mxCell id="100" style="edgeStyle=orthogonalEdgeStyle;html=1;entryX=0.008;entryY=0.682;entryDx=0;entryDy=0;curved=1;endArrow=none;endFill=0;entryPerimeter=0;exitX=1;exitY=0.5;exitDx=0;exitDy=0;" edge="1" parent="1" source="99" target="90">
                    <mxGeometry relative="1" as="geometry">
                        <mxPoint x="1159.220000000001" y="513.175" as="sourcePoint"/>
                        <mxPoint x="1091.5" y="496.01000000000005" as="targetPoint"/>
                    </mxGeometry>
                </mxCell>
                <mxCell id="101" value="numero_jugadores_plantilla" style="ellipse;whiteSpace=wrap;html=1;aspect=fixed;" vertex="1" parent="1">
                    <mxGeometry x="1010" y="550" width="170" height="72.87" as="geometry"/>
                </mxCell>
                <mxCell id="102" style="edgeStyle=orthogonalEdgeStyle;html=1;entryX=0.25;entryY=1;entryDx=0;entryDy=0;curved=1;endArrow=none;endFill=0;exitX=0.5;exitY=0;exitDx=0;exitDy=0;" edge="1" parent="1" source="101" target="90">
                    <mxGeometry relative="1" as="geometry">
                        <mxPoint x="977.49" y="536.03" as="sourcePoint"/>
                        <mxPoint x="1063.21" y="497.43000000000006" as="targetPoint"/>
                    </mxGeometry>
                </mxCell>
                <mxCell id="103" value="ciudad" style="ellipse;whiteSpace=wrap;html=1;aspect=fixed;" vertex="1" parent="1">
                    <mxGeometry x="1157" y="345.14" width="60" height="25.72" as="geometry"/>
                </mxCell>
                <mxCell id="104" style="edgeStyle=orthogonalEdgeStyle;html=1;exitX=0;exitY=1;exitDx=0;exitDy=0;entryX=1;entryY=0.25;entryDx=0;entryDy=0;curved=1;endArrow=none;endFill=0;" edge="1" parent="1" source="103" target="90">
                    <mxGeometry relative="1" as="geometry">
                        <mxPoint x="1218.4999999999975" y="456.42500000000007" as="sourcePoint"/>
                        <mxPoint x="1143.5" y="429.81999999999994" as="targetPoint"/>
                    </mxGeometry>
                </mxCell>
                <mxCell id="105" value="derrotas" style="ellipse;whiteSpace=wrap;html=1;aspect=fixed;" vertex="1" parent="1">
                    <mxGeometry x="1191.5" y="566.28" width="70" height="30.01" as="geometry"/>
                </mxCell>
                <mxCell id="106" style="edgeStyle=orthogonalEdgeStyle;html=1;entryX=0.5;entryY=1;entryDx=0;entryDy=0;curved=1;endArrow=none;endFill=0;exitX=0.5;exitY=0;exitDx=0;exitDy=0;" edge="1" parent="1" source="105" target="90">
                    <mxGeometry relative="1" as="geometry">
                        <mxPoint x="1166.5" y="553.8138000000001" as="sourcePoint"/>
                        <mxPoint x="1114" y="490.72" as="targetPoint"/>
                    </mxGeometry>
                </mxCell>
                <mxCell id="107" value="temporadas" style="rounded=0;whiteSpace=wrap;html=1;aspect=fixed;" vertex="1" parent="1">
                    <mxGeometry x="167.5" y="801.72" width="90" height="45" as="geometry"/>
                </mxCell>
                <mxCell id="108" style="edgeStyle=orthogonalEdgeStyle;html=1;exitX=0.5;exitY=1;exitDx=0;exitDy=0;entryX=0.25;entryY=0;entryDx=0;entryDy=0;curved=1;endArrow=none;endFill=0;" edge="1" parent="1" source="109" target="107">
                    <mxGeometry relative="1" as="geometry"/>
                </mxCell>
                <mxCell id="109" value="&lt;u&gt;id&lt;/u&gt;" style="ellipse;whiteSpace=wrap;html=1;aspect=fixed;" vertex="1" parent="1">
                    <mxGeometry x="195.99" y="697.5" width="38.49" height="16.5" as="geometry"/>
                </mxCell>
                <mxCell id="110" value="año_inicio" style="ellipse;whiteSpace=wrap;html=1;aspect=fixed;" vertex="1" parent="1">
                    <mxGeometry x="247.5" y="714" width="80" height="34.29" as="geometry"/>
                </mxCell>
                <mxCell id="111" style="edgeStyle=orthogonalEdgeStyle;html=1;exitX=0.5;exitY=1;exitDx=0;exitDy=0;entryX=0.75;entryY=0;entryDx=0;entryDy=0;curved=1;endArrow=none;endFill=0;" edge="1" parent="1" source="110" target="107">
                    <mxGeometry relative="1" as="geometry">
                        <mxPoint x="195.5" y="753.72" as="sourcePoint"/>
                        <mxPoint x="220.5" y="793.72" as="targetPoint"/>
                    </mxGeometry>
                </mxCell>
                <mxCell id="112" value="año_fin" style="ellipse;whiteSpace=wrap;html=1;aspect=fixed;" vertex="1" parent="1">
                    <mxGeometry x="327.5" y="761.7100000000002" width="60" height="25.72" as="geometry"/>
                </mxCell>
                <mxCell id="113" style="edgeStyle=orthogonalEdgeStyle;html=1;exitX=0;exitY=0.5;exitDx=0;exitDy=0;entryX=1;entryY=0.25;entryDx=0;entryDy=0;curved=1;endArrow=none;endFill=0;" edge="1" parent="1" source="112" target="107">
                    <mxGeometry relative="1" as="geometry">
                        <mxPoint x="327.5" y="791.45" as="sourcePoint"/>
                        <mxPoint x="312.5" y="836.02" as="targetPoint"/>
                    </mxGeometry>
                </mxCell>
                <mxCell id="114" style="edgeStyle=orthogonalEdgeStyle;html=1;entryX=0.75;entryY=1;entryDx=0;entryDy=0;curved=1;endArrow=none;endFill=0;exitX=0;exitY=0.5;exitDx=0;exitDy=0;" edge="1" parent="1" source="115" target="107">
                    <mxGeometry relative="1" as="geometry">
                        <mxPoint x="352.5" y="813.72" as="sourcePoint"/>
                        <mxPoint x="262.5" y="857.6200000000001" as="targetPoint"/>
                    </mxGeometry>
                </mxCell>
                <mxCell id="115" value="ganador_finales" style="ellipse;whiteSpace=wrap;html=1;aspect=fixed;" vertex="1" parent="1">
                    <mxGeometry x="360" y="792" width="110" height="47.15" as="geometry"/>
                </mxCell>
                <mxCell id="116" value="mvp" style="ellipse;whiteSpace=wrap;html=1;aspect=fixed;" vertex="1" parent="1">
                    <mxGeometry x="297.5" y="930" width="50" height="21.43" as="geometry"/>
                </mxCell>
                <mxCell id="117" style="edgeStyle=orthogonalEdgeStyle;html=1;entryX=0.008;entryY=0.682;entryDx=0;entryDy=0;curved=1;endArrow=none;endFill=0;entryPerimeter=0;exitX=0.5;exitY=0;exitDx=0;exitDy=0;" edge="1" parent="1" source="116" target="107">
                    <mxGeometry relative="1" as="geometry">
                        <mxPoint x="290.22000000000094" y="879.175" as="sourcePoint"/>
                        <mxPoint x="222.5000000000001" y="862.01" as="targetPoint"/>
                        <Array as="points">
                            <mxPoint x="320" y="930"/>
                            <mxPoint x="320" y="900"/>
                            <mxPoint x="160" y="900"/>
                            <mxPoint x="160" y="832"/>
                        </Array>
                    </mxGeometry>
                </mxCell>
                <mxCell id="128" value="dpoy" style="ellipse;whiteSpace=wrap;html=1;aspect=fixed;" vertex="1" parent="1">
                    <mxGeometry x="387.5" y="853.29" width="50" height="21.43" as="geometry"/>
                </mxCell>
                <mxCell id="129" style="edgeStyle=orthogonalEdgeStyle;html=1;curved=1;endArrow=none;endFill=0;exitX=0;exitY=1;exitDx=0;exitDy=0;" edge="1" parent="1" source="128" target="107">
                    <mxGeometry relative="1" as="geometry">
                        <mxPoint x="312.5" y="896.8137999999999" as="sourcePoint"/>
                        <mxPoint x="197.5" y="885.72" as="targetPoint"/>
                    </mxGeometry>
                </mxCell>
                <mxCell id="132" value="all_star_mvp" style="ellipse;whiteSpace=wrap;html=1;aspect=fixed;" vertex="1" parent="1">
                    <mxGeometry x="90" y="686.46" width="90" height="38.58" as="geometry"/>
                </mxCell>
                <mxCell id="133" value="roy" style="ellipse;whiteSpace=wrap;html=1;aspect=fixed;" vertex="1" parent="1">
                    <mxGeometry x="347.5" y="914.01" width="40" height="17.15" as="geometry"/>
                </mxCell>
                <mxCell id="134" value="coy" style="ellipse;whiteSpace=wrap;html=1;aspect=fixed;" vertex="1" parent="1">
                    <mxGeometry x="387.5" y="891.87" width="40" height="17.15" as="geometry"/>
                </mxCell>
                <mxCell id="135" style="edgeStyle=orthogonalEdgeStyle;html=1;curved=1;endArrow=none;endFill=0;exitX=0;exitY=0.5;exitDx=0;exitDy=0;entryX=0.25;entryY=1;entryDx=0;entryDy=0;" edge="1" parent="1" source="134" target="107">
                    <mxGeometry relative="1" as="geometry">
                        <mxPoint x="404.5320127239138" y="881.4551410656943" as="sourcePoint"/>
                        <mxPoint x="222.51515151515196" y="856.72" as="targetPoint"/>
                        <Array as="points">
                            <mxPoint x="387" y="880"/>
                            <mxPoint x="190" y="880"/>
                        </Array>
                    </mxGeometry>
                </mxCell>
                <mxCell id="138" style="edgeStyle=orthogonalEdgeStyle;html=1;curved=1;endArrow=none;endFill=0;exitX=0.5;exitY=0;exitDx=0;exitDy=0;" edge="1" parent="1" source="133" target="107">
                    <mxGeometry relative="1" as="geometry">
                        <mxPoint x="369.9999999999782" y="825.5749999999998" as="sourcePoint"/>
                        <mxPoint x="245" y="856.72" as="targetPoint"/>
                        <Array as="points">
                            <mxPoint x="367" y="890"/>
                            <mxPoint x="181" y="890"/>
                        </Array>
                    </mxGeometry>
                </mxCell>
                <mxCell id="139" value="finals_mvp" style="ellipse;whiteSpace=wrap;html=1;aspect=fixed;" vertex="1" parent="1">
                    <mxGeometry x="15" y="713.9999999999999" width="80" height="34.29" as="geometry"/>
                </mxCell>
                <mxCell id="140" value="ecf_mvp" style="ellipse;whiteSpace=wrap;html=1;aspect=fixed;" vertex="1" parent="1">
                    <mxGeometry x="15" y="761.9899999999999" width="70" height="30.01" as="geometry"/>
                </mxCell>
                <mxCell id="141" value="wcf_mvp" style="ellipse;whiteSpace=wrap;html=1;aspect=fixed;" vertex="1" parent="1">
                    <mxGeometry x="10.000000000000014" y="823.2799999999999" width="70" height="30.01" as="geometry"/>
                </mxCell>
                <mxCell id="142" value="ist_mvp" style="ellipse;whiteSpace=wrap;html=1;aspect=fixed;" vertex="1" parent="1">
                    <mxGeometry x="10" y="866.1499999999999" width="60" height="25.72" as="geometry"/>
                </mxCell>
                <mxCell id="143" value="executive_of_the_year" style="ellipse;whiteSpace=wrap;html=1;aspect=fixed;" vertex="1" parent="1">
                    <mxGeometry x="40" y="1078.3" width="140" height="60.01" as="geometry"/>
                </mxCell>
                <mxCell id="144" value="citizenship" style="ellipse;whiteSpace=wrap;html=1;aspect=fixed;" vertex="1" parent="1">
                    <mxGeometry x="172.5" y="1180" width="80" height="34.29" as="geometry"/>
                </mxCell>
                <mxCell id="145" value="sixth_man" style="ellipse;whiteSpace=wrap;html=1;aspect=fixed;" vertex="1" parent="1">
                    <mxGeometry x="10" y="917.14" width="80" height="34.29" as="geometry"/>
                </mxCell>
                <mxCell id="146" value="mip" style="ellipse;whiteSpace=wrap;html=1;aspect=fixed;" vertex="1" parent="1">
                    <mxGeometry x="30" y="796.7199999999999" width="40" height="17.15" as="geometry"/>
                </mxCell>
                <mxCell id="148" value="sportsmanship" style="ellipse;whiteSpace=wrap;html=1;aspect=fixed;" vertex="1" parent="1">
                    <mxGeometry x="15" y="970" width="100" height="42.87" as="geometry"/>
                </mxCell>
                <mxCell id="149" value="teammate" style="ellipse;whiteSpace=wrap;html=1;aspect=fixed;" vertex="1" parent="1">
                    <mxGeometry x="4.999999999999993" y="1020" width="80" height="34.29" as="geometry"/>
                </mxCell>
                <mxCell id="150" value="social_justice" style="ellipse;whiteSpace=wrap;html=1;aspect=fixed;" vertex="1" parent="1">
                    <mxGeometry x="95" y="1150" width="90" height="38.58" as="geometry"/>
                </mxCell>
                <mxCell id="151" value="clutch_of_the_year" style="ellipse;whiteSpace=wrap;html=1;aspect=fixed;" vertex="1" parent="1">
                    <mxGeometry x="240" y="1070" width="120" height="51.44" as="geometry"/>
                </mxCell>
                <mxCell id="153" style="edgeStyle=orthogonalEdgeStyle;html=1;exitX=0.5;exitY=1;exitDx=0;exitDy=0;curved=1;endArrow=none;endFill=0;" edge="1" parent="1" source="132">
                    <mxGeometry relative="1" as="geometry">
                        <mxPoint x="99.24499999999989" y="763.4299999999998" as="sourcePoint"/>
                        <mxPoint x="180" y="800" as="targetPoint"/>
                    </mxGeometry>
                </mxCell>
                <mxCell id="154" style="edgeStyle=orthogonalEdgeStyle;html=1;exitX=1;exitY=0.5;exitDx=0;exitDy=0;curved=1;endArrow=none;endFill=0;entryX=0;entryY=0.25;entryDx=0;entryDy=0;" edge="1" parent="1" source="139" target="107">
                    <mxGeometry relative="1" as="geometry">
                        <mxPoint x="145" y="735.04" as="sourcePoint"/>
                        <mxPoint x="190" y="810" as="targetPoint"/>
                    </mxGeometry>
                </mxCell>
                <mxCell id="156" style="edgeStyle=orthogonalEdgeStyle;html=1;exitX=1;exitY=0.5;exitDx=0;exitDy=0;curved=1;endArrow=none;endFill=0;entryX=0;entryY=0.5;entryDx=0;entryDy=0;" edge="1" parent="1" source="140" target="107">
                    <mxGeometry relative="1" as="geometry">
                        <mxPoint x="105" y="741.145" as="sourcePoint"/>
                        <mxPoint x="177.5" y="822.97" as="targetPoint"/>
                    </mxGeometry>
                </mxCell>
                <mxCell id="157" style="edgeStyle=orthogonalEdgeStyle;html=1;exitX=1;exitY=0.5;exitDx=0;exitDy=0;curved=1;endArrow=none;endFill=0;entryX=0;entryY=0.5;entryDx=0;entryDy=0;" edge="1" parent="1" source="146" target="107">
                    <mxGeometry relative="1" as="geometry">
                        <mxPoint x="95.00000000000034" y="786.9949999999999" as="sourcePoint"/>
                        <mxPoint x="177.5" y="834.22" as="targetPoint"/>
                        <Array as="points">
                            <mxPoint x="70" y="810"/>
                            <mxPoint x="120" y="810"/>
                            <mxPoint x="120" y="830"/>
                            <mxPoint x="168" y="830"/>
                        </Array>
                    </mxGeometry>
                </mxCell>
                <mxCell id="159" style="edgeStyle=orthogonalEdgeStyle;html=1;exitX=1;exitY=0;exitDx=0;exitDy=0;curved=1;endArrow=none;endFill=0;entryX=0;entryY=0.75;entryDx=0;entryDy=0;" edge="1" parent="1" source="141" target="107">
                    <mxGeometry relative="1" as="geometry">
                        <mxPoint x="95.00000000000034" y="786.9949999999999" as="sourcePoint"/>
                        <mxPoint x="177.5" y="834.22" as="targetPoint"/>
                    </mxGeometry>
                </mxCell>
                <mxCell id="160" style="edgeStyle=orthogonalEdgeStyle;html=1;exitX=1;exitY=0;exitDx=0;exitDy=0;curved=1;endArrow=none;endFill=0;entryX=-0.006;entryY=0.869;entryDx=0;entryDy=0;entryPerimeter=0;" edge="1" parent="1" source="142" target="107">
                    <mxGeometry relative="1" as="geometry">
                        <mxPoint x="79.89305341034105" y="837.737096012567" as="sourcePoint"/>
                        <mxPoint x="177.5" y="845.47" as="targetPoint"/>
                    </mxGeometry>
                </mxCell>
                <mxCell id="161" style="edgeStyle=orthogonalEdgeStyle;html=1;exitX=0.5;exitY=0;exitDx=0;exitDy=0;curved=1;endArrow=none;endFill=0;entryX=0.25;entryY=1;entryDx=0;entryDy=0;" edge="1" parent="1" source="145" target="107">
                    <mxGeometry relative="1" as="geometry">
                        <mxPoint x="71.63544848221261" y="880.1012859190889" as="sourcePoint"/>
                        <mxPoint x="180" y="850" as="targetPoint"/>
                    </mxGeometry>
                </mxCell>
                <mxCell id="162" style="edgeStyle=orthogonalEdgeStyle;html=1;curved=1;endArrow=none;endFill=0;entryX=0.392;entryY=0.987;entryDx=0;entryDy=0;entryPerimeter=0;exitX=0.5;exitY=0;exitDx=0;exitDy=0;" edge="1" parent="1" source="148" target="107">
                    <mxGeometry relative="1" as="geometry">
                        <mxPoint x="90" y="970" as="sourcePoint"/>
                        <mxPoint x="200" y="856.72" as="targetPoint"/>
                        <Array as="points">
                            <mxPoint x="65" y="940"/>
                            <mxPoint x="190" y="940"/>
                            <mxPoint x="190" y="846"/>
                        </Array>
                    </mxGeometry>
                </mxCell>
                <mxCell id="163" style="edgeStyle=orthogonalEdgeStyle;html=1;exitX=1;exitY=0.5;exitDx=0;exitDy=0;curved=1;endArrow=none;endFill=0;entryX=0.5;entryY=1;entryDx=0;entryDy=0;" edge="1" parent="1" source="149" target="107">
                    <mxGeometry relative="1" as="geometry">
                        <mxPoint x="60" y="927.1399999999999" as="sourcePoint"/>
                        <mxPoint x="200" y="856.72" as="targetPoint"/>
                        <Array as="points">
                            <mxPoint x="85" y="1010"/>
                            <mxPoint x="200" y="1010"/>
                            <mxPoint x="200" y="847"/>
                        </Array>
                    </mxGeometry>
                </mxCell>
                <mxCell id="166" style="edgeStyle=orthogonalEdgeStyle;html=1;exitX=0.571;exitY=0.028;exitDx=0;exitDy=0;curved=1;endArrow=none;endFill=0;entryX=0.75;entryY=1;entryDx=0;entryDy=0;exitPerimeter=0;" edge="1" parent="1" source="143" target="107">
                    <mxGeometry relative="1" as="geometry">
                        <mxPoint x="79.89305341034105" y="837.737096012567" as="sourcePoint"/>
                        <mxPoint x="177.5" y="845.47" as="targetPoint"/>
                    </mxGeometry>
                </mxCell>
                <mxCell id="169" style="edgeStyle=orthogonalEdgeStyle;html=1;exitX=1;exitY=0.5;exitDx=0;exitDy=0;curved=1;endArrow=none;endFill=0;" edge="1" parent="1" source="150" target="107">
                    <mxGeometry relative="1" as="geometry">
                        <mxPoint x="60" y="927.1399999999999" as="sourcePoint"/>
                        <mxPoint x="200" y="856.72" as="targetPoint"/>
                    </mxGeometry>
                </mxCell>
                <mxCell id="171" style="edgeStyle=orthogonalEdgeStyle;html=1;exitX=0.5;exitY=0;exitDx=0;exitDy=0;curved=1;endArrow=none;endFill=0;entryX=1;entryY=0.5;entryDx=0;entryDy=0;" edge="1" parent="1" source="144" target="107">
                    <mxGeometry relative="1" as="geometry">
                        <mxPoint x="95.00000000000102" y="786.9949999999997" as="sourcePoint"/>
                        <mxPoint x="177.5000000000001" y="834.22" as="targetPoint"/>
                        <Array as="points">
                            <mxPoint x="213" y="940"/>
                            <mxPoint x="260" y="940"/>
                            <mxPoint x="260" y="836"/>
                            <mxPoint x="258" y="836"/>
                        </Array>
                    </mxGeometry>
                </mxCell>
                <mxCell id="172" style="edgeStyle=orthogonalEdgeStyle;html=1;entryX=0.5;entryY=1;entryDx=0;entryDy=0;curved=1;endArrow=none;endFill=0;exitX=1;exitY=0;exitDx=0;exitDy=0;" edge="1" parent="1" source="151" target="107">
                    <mxGeometry relative="1" as="geometry">
                        <mxPoint x="369.9999999999998" y="825.575" as="sourcePoint"/>
                        <mxPoint x="245.0000000000001" y="856.72" as="targetPoint"/>
                    </mxGeometry>
                </mxCell>
                <mxCell id="173" value="estadios" style="rounded=0;whiteSpace=wrap;html=1;aspect=fixed;" vertex="1" parent="1">
                    <mxGeometry x="636" y="797.7199999999999" width="90" height="45" as="geometry"/>
                </mxCell>
                <mxCell id="174" style="edgeStyle=orthogonalEdgeStyle;html=1;exitX=0.5;exitY=1;exitDx=0;exitDy=0;entryX=0.25;entryY=0;entryDx=0;entryDy=0;curved=1;endArrow=none;endFill=0;" edge="1" parent="1" source="175" target="173">
                    <mxGeometry relative="1" as="geometry"/>
                </mxCell>
                <mxCell id="175" value="&lt;u&gt;id&lt;/u&gt;" style="ellipse;whiteSpace=wrap;html=1;aspect=fixed;" vertex="1" parent="1">
                    <mxGeometry x="538" y="732.86" width="37" height="15.86" as="geometry"/>
                </mxCell>
                <mxCell id="176" value="nombre" style="ellipse;whiteSpace=wrap;html=1;aspect=fixed;" vertex="1" parent="1">
                    <mxGeometry x="726" y="713.9999999999999" width="60" height="25.72" as="geometry"/>
                </mxCell>
                <mxCell id="177" style="edgeStyle=orthogonalEdgeStyle;html=1;exitX=0.5;exitY=1;exitDx=0;exitDy=0;entryX=0.75;entryY=0;entryDx=0;entryDy=0;curved=1;endArrow=none;endFill=0;" edge="1" parent="1" source="176" target="173">
                    <mxGeometry relative="1" as="geometry">
                        <mxPoint x="664" y="749.7199999999999" as="sourcePoint"/>
                        <mxPoint x="689" y="789.7199999999999" as="targetPoint"/>
                    </mxGeometry>
                </mxCell>
                <mxCell id="178" style="edgeStyle=orthogonalEdgeStyle;html=1;entryX=1;entryY=0.25;entryDx=0;entryDy=0;curved=1;endArrow=none;endFill=0;exitX=0.5;exitY=1;exitDx=0;exitDy=0;" edge="1" parent="1" source="179" target="173">
                    <mxGeometry relative="1" as="geometry">
                        <mxPoint x="821" y="809.7199999999999" as="sourcePoint"/>
                        <mxPoint x="731" y="853.62" as="targetPoint"/>
                    </mxGeometry>
                </mxCell>
                <mxCell id="179" value="año_construccion" style="ellipse;whiteSpace=wrap;html=1;aspect=fixed;" vertex="1" parent="1">
                    <mxGeometry x="783" y="738.9999999999999" width="120" height="51.43" as="geometry"/>
                </mxCell>
                <mxCell id="180" value="equipo" style="ellipse;whiteSpace=wrap;html=1;aspect=fixed;" vertex="1" parent="1">
                    <mxGeometry x="726" y="881.5799999999998" width="60" height="25.72" as="geometry"/>
                </mxCell>
                <mxCell id="181" style="edgeStyle=orthogonalEdgeStyle;html=1;entryX=0.75;entryY=1;entryDx=0;entryDy=0;curved=1;endArrow=none;endFill=0;exitX=0.5;exitY=0;exitDx=0;exitDy=0;" edge="1" parent="1" source="180" target="173">
                    <mxGeometry relative="1" as="geometry">
                        <mxPoint x="576.99" y="898.0299999999999" as="sourcePoint"/>
                        <mxPoint x="662.71" y="859.43" as="targetPoint"/>
                    </mxGeometry>
                </mxCell>
                <mxCell id="182" value="capacidad" style="ellipse;whiteSpace=wrap;html=1;aspect=fixed;" vertex="1" parent="1">
                    <mxGeometry x="583" y="887.8699999999998" width="80" height="34.29" as="geometry"/>
                </mxCell>
                <mxCell id="183" style="edgeStyle=orthogonalEdgeStyle;html=1;curved=1;endArrow=none;endFill=0;exitX=0.5;exitY=0;exitDx=0;exitDy=0;entryX=0.25;entryY=1;entryDx=0;entryDy=0;" edge="1" parent="1" source="182" target="173">
                    <mxGeometry relative="1" as="geometry">
                        <mxPoint x="766" y="891.5799999999999" as="sourcePoint"/>
                        <mxPoint x="713.5" y="852.7199999999998" as="targetPoint"/>
                    </mxGeometry>
                </mxCell>
                <mxCell id="184" value="patrocinador_principal" style="ellipse;whiteSpace=wrap;html=1;aspect=fixed;" vertex="1" parent="1">
                    <mxGeometry x="480" y="821.5699999999997" width="140" height="60.01" as="geometry"/>
                </mxCell>
                <mxCell id="185" style="edgeStyle=orthogonalEdgeStyle;html=1;exitX=0.5;exitY=0;exitDx=0;exitDy=0;entryX=-0.011;entryY=0.543;entryDx=0;entryDy=0;curved=1;endArrow=none;endFill=0;entryPerimeter=0;" edge="1" parent="1" source="184" target="173">
                    <mxGeometry relative="1" as="geometry">
                        <mxPoint x="566.5" y="758.72" as="sourcePoint"/>
                        <mxPoint x="668.5" y="807.7199999999998" as="targetPoint"/>
                        <Array as="points">
                            <mxPoint x="550" y="812"/>
                            <mxPoint x="600" y="812"/>
                            <mxPoint x="600" y="822"/>
                        </Array>
                    </mxGeometry>
                </mxCell>
                <mxCell id="187" value="contratos" style="rounded=0;whiteSpace=wrap;html=1;aspect=fixed;" vertex="1" parent="1">
                    <mxGeometry x="1038" y="797.5699999999999" width="90" height="45" as="geometry"/>
                </mxCell>
                <mxCell id="188" style="edgeStyle=orthogonalEdgeStyle;html=1;exitX=0.5;exitY=1;exitDx=0;exitDy=0;entryX=0.25;entryY=0;entryDx=0;entryDy=0;curved=1;endArrow=none;endFill=0;" edge="1" parent="1" source="189" target="187">
                    <mxGeometry relative="1" as="geometry"/>
                </mxCell>
                <mxCell id="189" value="&lt;u&gt;id&lt;/u&gt;" style="ellipse;whiteSpace=wrap;html=1;aspect=fixed;" vertex="1" parent="1">
                    <mxGeometry x="940" y="732.71" width="37" height="15.86" as="geometry"/>
                </mxCell>
                <mxCell id="190" value="nombre" style="ellipse;whiteSpace=wrap;html=1;aspect=fixed;" vertex="1" parent="1">
                    <mxGeometry x="1131.5" y="713.28" width="60" height="25.72" as="geometry"/>
                </mxCell>
                <mxCell id="191" style="edgeStyle=orthogonalEdgeStyle;html=1;exitX=0.5;exitY=1;exitDx=0;exitDy=0;entryX=0.75;entryY=0;entryDx=0;entryDy=0;curved=1;endArrow=none;endFill=0;" edge="1" parent="1" source="190" target="187">
                    <mxGeometry relative="1" as="geometry">
                        <mxPoint x="1066" y="749.5699999999999" as="sourcePoint"/>
                        <mxPoint x="1091" y="789.5699999999999" as="targetPoint"/>
                    </mxGeometry>
                </mxCell>
                <mxCell id="192" style="edgeStyle=orthogonalEdgeStyle;html=1;entryX=1;entryY=0.25;entryDx=0;entryDy=0;curved=1;endArrow=none;endFill=0;exitX=0.5;exitY=1;exitDx=0;exitDy=0;" edge="1" parent="1" source="193" target="187">
                    <mxGeometry relative="1" as="geometry">
                        <mxPoint x="1223" y="809.5699999999999" as="sourcePoint"/>
                        <mxPoint x="1133" y="853.47" as="targetPoint"/>
                    </mxGeometry>
                </mxCell>
                <mxCell id="193" value="año_inicio" style="ellipse;whiteSpace=wrap;html=1;aspect=fixed;" vertex="1" parent="1">
                    <mxGeometry x="1205" y="747.85" width="80" height="34.29" as="geometry"/>
                </mxCell>
                <mxCell id="194" value="salario_promedio" style="ellipse;whiteSpace=wrap;html=1;aspect=fixed;" vertex="1" parent="1">
                    <mxGeometry x="1127" y="901.3" width="120" height="51.44" as="geometry"/>
                </mxCell>
                <mxCell id="195" style="edgeStyle=orthogonalEdgeStyle;html=1;entryX=0.75;entryY=1;entryDx=0;entryDy=0;curved=1;endArrow=none;endFill=0;exitX=0.5;exitY=0;exitDx=0;exitDy=0;" edge="1" parent="1" source="194" target="187">
                    <mxGeometry relative="1" as="geometry">
                        <mxPoint x="978.99" y="897.88" as="sourcePoint"/>
                        <mxPoint x="1064.71" y="859.2800000000001" as="targetPoint"/>
                    </mxGeometry>
                </mxCell>
                <mxCell id="198" value="tipo" style="ellipse;whiteSpace=wrap;html=1;aspect=fixed;" vertex="1" parent="1">
                    <mxGeometry x="1020" y="701.5" width="40" height="17.15" as="geometry"/>
                </mxCell>
                <mxCell id="199" style="edgeStyle=orthogonalEdgeStyle;html=1;exitX=0.5;exitY=1;exitDx=0;exitDy=0;entryX=0.5;entryY=0;entryDx=0;entryDy=0;curved=1;endArrow=none;endFill=0;" edge="1" parent="1" source="198" target="187">
                    <mxGeometry relative="1" as="geometry">
                        <mxPoint x="1171.5" y="749" as="sourcePoint"/>
                        <mxPoint x="1115.5" y="807.5699999999999" as="targetPoint"/>
                    </mxGeometry>
                </mxCell>
                <mxCell id="200" value="año_fin" style="ellipse;whiteSpace=wrap;html=1;aspect=fixed;" vertex="1" parent="1">
                    <mxGeometry x="1242" y="844.7199999999999" width="60" height="25.72" as="geometry"/>
                </mxCell>
                <mxCell id="201" style="edgeStyle=orthogonalEdgeStyle;html=1;entryX=1;entryY=0.75;entryDx=0;entryDy=0;curved=1;endArrow=none;endFill=0;exitX=0.5;exitY=0;exitDx=0;exitDy=0;" edge="1" parent="1" source="200" target="187">
                    <mxGeometry relative="1" as="geometry">
                        <mxPoint x="1197" y="917.3" as="sourcePoint"/>
                        <mxPoint x="1115.5" y="852.5699999999999" as="targetPoint"/>
                    </mxGeometry>
                </mxCell>
                <mxCell id="202" value="incremento / decremento porcentual" style="ellipse;whiteSpace=wrap;html=1;aspect=fixed;" vertex="1" parent="1">
                    <mxGeometry x="930" y="897.65" width="166.5" height="71.38" as="geometry"/>
                </mxCell>
                <mxCell id="203" style="edgeStyle=orthogonalEdgeStyle;html=1;exitX=0.5;exitY=0;exitDx=0;exitDy=0;entryX=0.25;entryY=1;entryDx=0;entryDy=0;curved=1;endArrow=none;endFill=0;" edge="1" parent="1" source="202" target="187">
                    <mxGeometry relative="1" as="geometry">
                        <mxPoint x="968.5" y="758.5699999999997" as="sourcePoint"/>
                        <mxPoint x="1070.5" y="807.5699999999999" as="targetPoint"/>
                    </mxGeometry>
                </mxCell>
            </root>
        </mxGraphModel>
    </diagram>
</mxfile>